# xmcd
#
# Track frame offsets: 
#        150
#        21706
#        47366
#        73377
#        100768
#        132259
#        159631
#        180316
#
# Disc length: 2569 seconds
#
# Revision: 0
# Processed by: cddbd v1.5.2PL0 Copyright (c) Steve Scherf et al.
# Submitted via: ExactAudioCopy v0.99pb5
#
DISCID=6a0a0708
DTITLE=Fat Danny and The Hard Tymz Blues Band - Thinking About You
DYEAR=2000
DGENRE=Blues
TTITLE0=Thinking About You
TTITLE1=Two Shot Dan
TTITLE2=Love Pig
TTITLE3=Three Kings
TTITLE4=Cleo's Tune
TTITLE5=Singing Ang Playing The Blues
TTITLE6=Supposed To Be Your Man
TTITLE7=Got To Fly
EXTD=
EXTT0=
EXTT1=
EXTT2=
EXTT3=
EXTT4=
EXTT5=
EXTT6=
EXTT7=
PLAYORDER=
